<?xml version="1.0" encoding="UTF-8" standalone="no"?>
<svg
   width="104.99999"
   height="105"
   viewBox="0 0 41.999997 42"
   version="1.1"
   id="svg5"
   xmlns="http://www.w3.org/2000/svg"
   xmlns:svg="http://www.w3.org/2000/svg">
  <g
     id="g6"
     transform="translate(-12.585469,-11.303619)">
    <rect
       style="fill:#000000;fill-opacity:0;stroke-width:0.41375"
       id="rect5"
       width="42"
       height="42"
       x="12.585469"
       y="11.303619" />
    <g
       id="g5"
       transform="translate(1.5854692,0.0153857)">
      <path
         d="M 32,52 C 28,38 20,28 28,20 c 0,-4 4,-12 4,-4 0,-8 4,0 4,4 0,8 -4,18 -4,32 z"
         fill="url(#grad1)"
         stroke="#2f7a2f"
         stroke-width="2"
         stroke-linecap="round"
         stroke-linejoin="round"
         id="path1"
         style="fill:url(#grad1)" />
      <path
         d="m 32,52 c 4,-14 12,-24 4,-32 0,-4 -4,-12 -4,-4 0,-8 -4,0 -4,4 0,8 4,18 4,32 z"
         fill="url(#grad2)"
         stroke="#2f7a2f"
         stroke-width="2"
         stroke-linecap="round"
         stroke-linejoin="round"
         id="path2"
         style="fill:url(#grad2)" />
    </g>
  </g>
  <defs
     id="defs5">
    <linearGradient
       id="grad1"
       x1="24"
       y1="8"
       x2="32"
       y2="52"
       gradientUnits="userSpaceOnUse">
      <stop
         stop-color="#6fcf97"
         id="stop2" />
      <stop
         offset="1"
         stop-color="#27ae60"
         id="stop3" />
    </linearGradient>
    <linearGradient
       id="grad2"
       x1="32"
       y1="8"
       x2="40"
       y2="52"
       gradientUnits="userSpaceOnUse">
      <stop
         stop-color="#a3e635"
         id="stop4" />
      <stop
         offset="1"
         stop-color="#2f7a2f"
         id="stop5" />
    </linearGradient>
  </defs>
</svg>
